<svg class="icon" viewBox="0 0 1024 1024" xmlns="http://www.w3.org/2000/svg" width="32" height="32"><defs><style/></defs><path d="M512 665.6c-89.6 0-162.133-72.533-162.133-162.133S422.4 340.267 512 340.267 674.133 412.8 674.133 502.4 601.6 665.6 512 665.6zm0-282.667c-66.133 0-119.467 53.334-119.467 119.467S445.867 621.867 512 621.867 631.467 568.533 631.467 502.4c0-65.067-53.334-119.467-119.467-119.467z" fill="#cdcdcd"/><path d="M512 748.8c-224 0-406.4-190.933-440.533-229.333a27.798 27.798 0 0 1 0-37.334C105.6 444.8 286.933 253.867 512 253.867S918.4 444.8 952.533 483.2a27.798 27.798 0 0 1 0 37.333C918.4 557.867 737.067 748.8 512 748.8zM112 501.333c21.333 22.4 66.133 67.2 128 109.867 92.8 64 184.533 96 272 96s179.2-32 272-96c61.867-42.667 107.733-87.467 128-109.867-21.333-22.4-66.133-67.2-128-109.866-92.8-64-184.533-96-272-96s-179.2 32-272 96c-61.867 42.666-106.667 87.466-128 109.866z" fill="#cdcdcd"/></svg>