<?xml version="1.0" standalone="no"?><!DOCTYPE svg PUBLIC "-//W3C//DTD SVG 1.1//EN" "http://www.w3.org/Graphics/SVG/1.1/DTD/svg11.dtd"><svg t="1548055538440" class="icon" style="" viewBox="0 0 1024 1024" version="1.1" xmlns="http://www.w3.org/2000/svg" p-id="5983" xmlns:xlink="http://www.w3.org/1999/xlink" width="32" height="32"><defs><style type="text/css"></style></defs><path d="M512 665.6c-89.6 0-162.133333-72.533333-162.133333-162.133333S422.4 340.266667 512 340.266667s162.133333 72.533333 162.133333 162.133333S601.6 665.6 512 665.6z m0-282.666667c-66.133333 0-119.466667 53.333333-119.466667 119.466667 0 66.133333 53.333333 119.466667 119.466667 119.466667 66.133333 0 119.466667-53.333333 119.466667-119.466667 0-65.066667-53.333333-119.466667-119.466667-119.466667z" p-id="5984" fill="#cdcdcd"></path><path d="M512 748.8c-224 0-406.4-190.933333-440.533333-229.333333-9.6-10.666667-9.6-26.666667 0-37.333334C105.6 444.8 286.933333 253.866667 512 253.866667c225.066667 0 406.4 190.933333 440.533333 229.333333 9.6 10.666667 9.6 26.666667 0 37.333333-34.133333 37.333333-215.466667 228.266667-440.533333 228.266667zM112 501.333333c21.333333 22.4 66.133333 67.2 128 109.866667 92.8 64 184.533333 96 272 96s179.2-32 272-96c61.866667-42.666667 107.733333-87.466667 128-109.866667-21.333333-22.4-66.133333-67.2-128-109.866666-92.8-64-184.533333-96-272-96s-179.2 32-272 96c-61.866667 42.666667-106.666667 87.466667-128 109.866666z" p-id="5985" fill="#cdcdcd"></path></svg>